<?xml version="1.0" encoding="UTF-8"?><svg id="Layer_1" xmlns="http://www.w3.org/2000/svg" xmlns:xlink="http://www.w3.org/1999/xlink" viewBox="0 0 160 134.92"><defs><clipPath id="clippath"><path d="M71.39,1.95L5.69,33.3c-3.48,1.66-5.69,5.17-5.69,9.02v87.58c0,3.68,3.84,6.1,7.15,4.51l64.23-30.66c5.45-2.6,11.78-2.6,17.23,0l64.23,30.66c3.32,1.58,7.15-.84,7.15-4.51V42.33c0-3.85-2.21-7.36-5.69-9.02L88.61,1.95c-5.45-2.6-11.78-2.6-17.23,0Z" style="fill:none;"/></clipPath></defs><g style="clip-path:url(#clippath);"><path d="M71.39,1.95L5.69,33.3c-3.48,1.66-5.69,5.17-5.69,9.02v87.58c0,3.68,3.84,6.1,7.15,4.51h145.69c3.32,1.58,7.15-.84,7.15-4.51V42.33c0-3.85-2.21-7.36-5.69-9.02L88.61,1.95c-5.45-2.6-11.78-2.6-17.23,0Z" style="fill:#aeb8ff;"/><path d="M71.39,1.95L0,36.02l17.29,14.02,54.09-27.73c5.45-2.6,11.78-2.6,17.23,0l54.09,27.73,17.29-14.02L88.61,1.95c-5.45-2.6-11.78-2.6-17.23,0Z" style="fill:#0c1eda;"/><path d="M71.39,83.43l-55.39,26.43,22.26,9.74,33.12-15.81c5.45-2.6,11.78-2.6,17.23,0l33.12,15.81,22.26-9.74-55.39-26.43c-5.45-2.6-11.78-2.6-17.23,0Z" style="fill:#0c1eda;"/><path d="M88.61,83.4l55.39,26.43v-14.06c0-3.85-2.21-7.36-5.69-9.02l-58.31-27.83v22.52c2.95,0,5.89.65,8.61,1.95Z" style="fill:#f5f5f5;"/><path d="M16,95.78v14.06l55.39-26.43c2.72-1.3,5.67-1.95,8.61-1.95v-22.52l-58.31,27.83c-3.48,1.66-5.69,5.17-5.69,9.02Z" style="fill:#f4efe9;"/><path d="M71.39,22.31l-49.69,23.72c-3.48,1.66-5.69,5.17-5.69,9.02v14.06l55.39-26.43c2.72-1.3,5.67-1.95,8.61-1.95v-20.36c-2.95,0-5.89.65-8.61,1.95Z" style="fill:#f4efe9;"/><path d="M144,69.11v-14.06c0-3.85-2.21-7.36-5.69-9.02l-49.69-23.72c-2.72-1.3-5.67-1.95-8.61-1.95v20.36c2.95,0,5.89.65,8.61,1.95l55.39,26.43Z" style="fill:#f5f5f5;"/><path d="M71.39,42.67l-55.39,26.43,21.33,10.18,34.05-16.25c5.45-2.6,11.78-2.6,17.23,0l34.05,16.25,21.33-10.18-55.39-26.43c-5.45-2.6-11.78-2.6-17.23,0Z" style="fill:#0c1eda;"/></g></svg>