<?xml version="1.0" encoding="utf-8"?>
<!-- Generator: Adobe Illustrator 18.1.1, SVG Export Plug-In . SVG Version: 6.00 Build 0)  -->
<svg version="1.1" baseProfile="basic" id="Layer_1"
	 xmlns="http://www.w3.org/2000/svg" xmlns:xlink="http://www.w3.org/1999/xlink" x="0px" y="0px" viewBox="0 0 1000 1000"
	 xml:space="preserve">
<g>
	<g>
		<polygon fill="#E8E8E8" points="500.1,212.2 889,370.3 889,790.6 500.2,633.9 		"/>
		<path fill="#CE430D" d="M126.6,311.2l1.2-0.5C127.4,310.9,127,311,126.6,311.2z"/>
		<polygon fill="none" points="136.8,546.1 136.9,546 136.9,546 136.8,546.1 		"/>
		<path fill="none" d="M208.3,594.5l-49.1-33.2c0-0.1,0-0.1,0.1-0.2l17.2,11.6L208.3,594.5z"/>
		<line fill="#FFA45D" x1="136.8" y1="546.1" x2="136.8" y2="546.1"/>
		<path fill="#CE430D" d="M159.3,561.1c0,0.1,0,0.1-0.1,0.2l-22.5-15.2l0.1-0.1L159.3,561.1z"/>
		<path fill="#CE430D" d="M111.1,548c0,0.1,0,0.2,0,0.3l0-0.6C111.2,547.9,111.1,548,111.1,548z"/>
		<path fill="#CE430D" d="M126.7,522.5l1-0.4C127.4,522.2,127,522.3,126.7,522.5z"/>
		<polygon fill="#CE430D" points="136.9,546 136.8,546.1 136.8,546.1 115.9,531.9 		"/>
		<g>
			<path fill="#055E66" d="M791.1,700.2L679,760.1l-156.5-63.6c-14.7-6-30.8-5.9-45.4,0L319.3,761l-111-59.8L477,591
				c14.7-6,30.9-6,45.6-0.1L791.1,700.2z"/>
			<path fill="#055E66" d="M872.9,311.1l-2.6-1.1L537.2,174.4c-24.2-9.8-50.8-9.8-75,0L127.9,310.7l-1.2,0.5
				c-4.4,2-8.1,5.3-10.8,9.5l43.3,29.5l49.1,33.4l270-109.8c13.9-5.6,29.1-5.7,43,0l269.9,109.1l49-33l43.4-29.3
				C880.9,316.4,877.2,313.1,872.9,311.1z"/>
			<g>
				<path fill="#055E66" d="M791.1,488.1L679,548.9l-155.7-63.7c-14.7-6-30.8-6-45.4-0.1L208.3,594.5l-31.8-21.8l-17.2-11.6
					L136.9,546l-21-14.1c2.7-4.2,6.4-7.5,10.8-9.5l1-0.4l350.2-142.5c14.6-5.9,30.7-6,45.3,0L791.1,488.1z"/>
			</g>
		</g>
		<path fill="#CE430D" d="M840.2,349.9c0,0,0-0.1-0.1-0.1l-49,33l47.1-31.5L840.2,349.9z"/>
		<path fill="#CE430D" d="M883.6,320.5l-43.4,29.3c0,0,0,0.1,0.1,0.1L883.6,320.5C883.6,320.5,883.6,320.5,883.6,320.5z"/>
		<g>
			<path fill="#2DD4BF" d="M888.3,337.3V336c-0.1-5.7-1.8-11-4.7-15.4l-43.4,29.4l-2,1.3l-47.1,31.5l0,105.2l-111,60.8l111,45.4
				l-0.1,105.9l-112.2,59.9l111.2,45.5l0.2,0.2l62.2,25.3c16.9,6.9,35.8-7,35.8-26.6L888.3,337.3z"/>
			<path fill="#2DD4BF" d="M115.9,532c-2.9,4.5-4.7,9.9-4.7,15.8l0,0.6l-0.1,78.7l0.1,177.7c0,19.7,18.1,33.3,35,26.3l62.1-25.4
				l111-44.8l-111-59.8l0.1-106.4l-0.1-0.2"/>
			<path fill="#2DD4BF" d="M208.3,383.6l-49.1-33.4l-43.3-29.5c-2.7,4.2-4.4,9.2-4.7,14.6l0,3l0,44.3c0,19.7,18.1,33.3,35,26.4
				L208.3,383.6L208.3,383.6z"/>
		</g>
		<polygon fill="#FFA45D" points="159.1,350.2 208.3,383.6 159.1,350.2 		"/>
		
			<rect x="111.3" y="335.4" transform="matrix(-0.8269 -0.5623 0.5623 -0.8269 62.564 690.1248)" fill="#FFA45D" width="52.4" height="0"/>
	</g>
</g>
</svg>
